<svg id="Layer_1" data-name="Layer 1" xmlns="http://www.w3.org/2000/svg" viewBox="0 0 274.29 292.61"><defs><style>.cls-1{fill:#231f20;}.cls-2{fill:#a39161;}.cls-3{fill:#fff;}</style></defs><title>header-logodarktext</title><rect class="cls-1" x="239.45" y="129.07" width="34.8" height="1.5"/><rect class="cls-1" x="239.45" y="154.85" width="34.8" height="1.5"/><rect class="cls-1" y="129.07" width="28.58" height="1.5"/><rect class="cls-1" y="154.85" width="28.58" height="1.5"/><path class="cls-2" d="M167.29,414.7v1H162.1v3.55h3.69v1H162.1v4.06h5.48v1h-6.66V414.7Z" transform="translate(-160.34 -277.07)"/><path class="cls-2" d="M175.34,417.4a2.42,2.42,0,0,0-2.47-1.85c-1.24,0-2,.59-2,1.64,0,2.33,6,1.74,6,5.15,0,1.54-.87,3.11-3.57,3.11a3.91,3.91,0,0,1-3.79-2.76l1.07-.38a2.9,2.9,0,0,0,2.78,2.14c1.55,0,2.33-.82,2.33-1.91,0-2.7-6-1.91-6-5.26,0-1.53,1.28-2.73,3.19-2.73a3.48,3.48,0,0,1,3.49,2.61Z" transform="translate(-160.34 -277.07)"/><path class="cls-2" d="M182.84,415.7v9.61h-1.18V415.7h-3.17v-1H186v1Z" transform="translate(-160.34 -277.07)"/><path class="cls-2" d="M188.38,423.69v1.62h-1.44v-1.62Z" transform="translate(-160.34 -277.07)"/><path class="cls-2" d="M401.38,425.31v-.92h1.83v-8.62l-2,.2v-.69a10.16,10.16,0,0,0,2-.73h1.06v9.84h1.81v.92Z" transform="translate(-160.34 -277.07)"/><path class="cls-2" d="M409.84,423.94a2.64,2.64,0,0,0,1.8.6c1.68,0,3.13-1.5,3.27-4.44a3.67,3.67,0,0,1-2.91,1.27,3.16,3.16,0,0,1-3.19-3.41,3.26,3.26,0,0,1,3.42-3.41c2.21,0,3.79,1.29,3.79,4.91,0,3.35-1.5,6-4.35,6a3.69,3.69,0,0,1-2.29-.61Zm2.3-3.48a2.9,2.9,0,0,0,2.71-2c0-1.85-1-3-2.53-3a2.51,2.51,0,0,0-.18,5Z" transform="translate(-160.34 -277.07)"/><path class="cls-2" d="M419.25,423.94a2.68,2.68,0,0,0,1.81.6c1.68,0,3.13-1.5,3.26-4.44a3.65,3.65,0,0,1-2.91,1.27,3.17,3.17,0,0,1-3.19-3.41,3.26,3.26,0,0,1,3.43-3.41c2.2,0,3.79,1.29,3.79,4.91,0,3.35-1.5,6-4.35,6a3.67,3.67,0,0,1-2.29-.61Zm2.31-3.48a2.9,2.9,0,0,0,2.7-2c0-1.85-1-3-2.52-3a2.51,2.51,0,0,0-.18,5Z" transform="translate(-160.34 -277.07)"/><path class="cls-2" d="M434.62,425.31h-6.89v-1.12c1.84-3.72,5.79-3.94,5.79-6.79,0-1.23-.8-1.94-2.15-1.94a2.56,2.56,0,0,0-2.49,2.31l-1.05-.24a3.41,3.41,0,0,1,3.57-3c1.74,0,3.23,1,3.23,2.82,0,3.23-4.64,4.12-5.78,7h5.77Z" transform="translate(-160.34 -277.07)"/><path class="cls-1" d="M252.73,314.45l-4.51,1.64-4.85-28.95,5.78-2.1L264,310.36,259.49,312l-3-5.72-5.11,1.86Zm-2.16-10.62,3.76-1.36-6.07-11-.07,0Z" transform="translate(-160.34 -277.07)"/><path class="cls-1" d="M270.61,308.82l-5.1-28.42,4.88-.88,4.34,24.17,7.68-1.37.76,4.25Z" transform="translate(-160.34 -277.07)"/><path class="cls-1" d="M290,306l-.52-28.86,5-.09.44,24.55,7.79-.14.08,4.31Z" transform="translate(-160.34 -277.07)"/><path class="cls-1" d="M313.46,284.66c.65-4,3.54-6.92,8.67-6.1s7,4.49,6.33,8.51l-2.36,14.69c-.65,4-3.55,6.92-8.68,6.09s-7-4.48-6.32-8.5ZM316,300c-.34,2.14.12,3.26,2.1,3.58s2.77-.61,3.11-2.74l2.32-14.45c.35-2.13-.12-3.26-2.09-3.57s-2.77.6-3.12,2.74Z" transform="translate(-160.34 -277.07)"/><path class="cls-1" d="M336.31,312l-4.51-1.63L346.65,285l5.79,2.1-4.85,28.95-4.51-1.64,1.35-6.32-5.11-1.85Zm5.16-9.52,3.76,1.36,2.39-12.32-.08,0Z" transform="translate(-160.34 -277.07)"/><path class="cls-1" d="M215.71,512.6l4.49,3.95c3.25,2.85,3.23,5.78.59,8.78-1.33,1.51-3.36,2.54-5.34,1.84.94,2,.77,4.05-1.23,6.32-2.55,2.91-5.77,4-9.22.94l-4.78-4.2Zm-10.28,17.8,1.27,1.11c1.62,1.42,3,1,4.58-.78s1.7-3.31-.11-4.89l-1-.86Zm7-7.91,1.09,1a2.66,2.66,0,0,0,4-.46c1.44-1.64,1.56-3,.22-4.23l-1.15-1Z" transform="translate(-160.34 -277.07)"/><path class="cls-1" d="M227.38,529.6c1.76-2.81,4.84-4.06,8.42-1.82s3.81,5.56,2,8.37l-6.41,10.25c-1.76,2.81-4.85,4.07-8.43,1.82s-3.8-5.56-2-8.37Zm-2.95,12.31c-.93,1.48-.93,2.48.44,3.34s2.27.42,3.2-1.07l6.31-10.08c.93-1.49.94-2.48-.44-3.35s-2.26-.42-3.2,1.07Z" transform="translate(-160.34 -277.07)"/><path class="cls-1" d="M245.37,545.91l.45-12,3.64,1.56-.65,7.82.06,0,5-6,3.64,1.56-8.13,8.68-.64,13.09-3.64-1.56.84-8.93-.06,0L239.94,557l-3.64-1.56Z" transform="translate(-160.34 -277.07)"/><path class="cls-1" d="M257.14,563.38l6.46-22.57,3.88,1.11L261,564.49Z" transform="translate(-160.34 -277.07)"/><path class="cls-1" d="M271.17,567l3.41-23.22,3.7.54,2.91,14h.06L283.2,545l3.6.53-3.4,23.22-3.48-.51L277,553h-.07l-2.12,14.51Z" transform="translate(-160.34 -277.07)"/><path class="cls-1" d="M299.25,557.45l6.6-.1.2,11.89-1.95,0-.78-1.74a4.68,4.68,0,0,1-4,2.15c-3.18.05-5.43-2.19-5.49-5.93l-.2-12.09c-.06-3.31,1.85-6,5.82-6.11s6.09,2.83,6.15,6.34l0,1.49-3.84.07c-.05-3.51-.78-4.41-2.37-4.39-1,0-1.78.62-1.75,2.6l.2,12.06c0,1.49.53,2.46,1.92,2.44,1.63,0,2.2-.95,2.16-3.29l0-2.27-2.57,0Z" transform="translate(-160.34 -277.07)"/><path class="cls-1" d="M332.6,548.86l-.47-1.76c-.52-1.91-1.62-2.49-2.62-2.22-1.57.43-1.85,1.38-1.4,3.08l3.12,11.48c.45,1.7,1.18,2.38,2.75,1.95,1.41-.38,1.66-1.32,1.26-2.8l-.74-2.73,3.89-1.05.71,2.6c.86,3.2-.31,6.32-4.21,7.37-4.08,1.11-6.66-1-7.53-4.19l-3.16-11.67c-.87-3.21.31-6.32,4.39-7.43,3.89-1,6.54,1.26,7.46,4.65l.45,1.67Z" transform="translate(-160.34 -277.07)"/><path class="cls-1" d="M350.19,559.42l-9.41-21.51,3.7-1.61,8,18.28,5.8-2.54,1.41,3.22Z" transform="translate(-160.34 -277.07)"/><path class="cls-1" d="M355,531.28l3.42-2.15,9.41,15c.91,1.46,1.94,1.82,3.18,1s1.37-1.86.45-3.32l-9.41-15,3.42-2.14,9.32,14.87c2.14,3.42,1.34,6.54-1.91,8.57s-6.41,1.41-8.55-2Z" transform="translate(-160.34 -277.07)"/><path class="cls-1" d="M370.9,520.68l4.48-3.95c3.25-2.86,6.15-2.47,8.79.54,1.33,1.51,2.1,3.65,1.15,5.53,2.14-.67,4.11-.25,6.11,2,2.56,2.9,3.2,6.24-.24,9.27l-4.78,4.21Zm9.38,4.56,1.1-1a2.66,2.66,0,0,0,.05-4c-1.44-1.64-2.83-1.93-4.17-.75l-1.15,1Zm7,7.91,1.27-1.12c1.61-1.42,1.38-2.86-.19-4.64s-3.07-2.11-4.87-.52l-1,.86Z" transform="translate(-160.34 -277.07)"/><path class="cls-2" d="M294.59,522.82c-29.16,0-53-19.13-58-46.52-1.55-7.25-4.51-7.57-4.54-7.58h0a4.17,4.17,0,0,1-4.13-4.18v-1.21a4.15,4.15,0,0,1,1-2.69l1.83-2.72a4.38,4.38,0,0,1,.67-.81c-2.92-1-5.78-2.25-8.43-3.39-1.36-.58-2.66-1.14-3.86-1.62a8.07,8.07,0,0,1-.69,1.2l-2.09,3.1a8.8,8.8,0,0,1-14.62,0,13.72,13.72,0,0,1-.38-16l2-2.9,0-.06a12.2,12.2,0,0,1,1.47-1.83,14.21,14.21,0,0,1,10.44-4,25.7,25.7,0,0,1,4.54.43l10.28-28.52a3.25,3.25,0,0,0-1.15-.78,4.18,4.18,0,0,1-4-4.18v-.75a4.17,4.17,0,0,1,1-2.69l.16-.23h0l.48-.72,2.44,1.6-2.37-1.7,1.19-1.76a4.14,4.14,0,0,1,3.32-1.86,12.49,12.49,0,0,0,4.61-2.64l8.3-23a8.78,8.78,0,0,1-9.3-3.68,13.72,13.72,0,0,1-.38-16l.69-1,.15-.22,1.24-1.84a11.17,11.17,0,0,1,1.39-1.7,14.18,14.18,0,0,1,10.45-4c6.52,0,14,3.15,20,5.67,1.24.52,2.45,1,3.57,1.48a8.58,8.58,0,0,1,.85-1.54l2.08-3.08a8.79,8.79,0,0,1,14.14-.66c4.46,5.12,3.74,12.61.79,17.06l-2,3-2.51-1.49,2.44,1.58a11,11,0,0,1-1.44,1.81,12.82,12.82,0,0,1-4.4,2.88c3.71,8.86,9.35,22.32,14.52,34.69v-.17a4.14,4.14,0,0,1,1-2.68l1.66-2.46.18-.27a4.2,4.2,0,0,1,2.18-1.73V365.28a4.1,4.1,0,0,1,1-2.7v0l.15-.23,1.68-2.49a4.16,4.16,0,0,1,3.49-1.92h1a4.18,4.18,0,0,1,3.74,2.31l.3.63c.48,1,1.76,3.65,2.85,3.65,2.49,0,4.95-1.42,8.06-3.22,4.67-2.7,10.48-6.06,19.22-6.06,19.07,0,33.45,13.25,33.45,30.83a29.66,29.66,0,0,1-4.79,16.9s-.1.15-.12.18l-.07.1a.55.55,0,0,0-.08.1h0l-.42.63-.25.36-.52.78-.22.32h0l-.06.1h0l-.07.11-.42.61A36.37,36.37,0,0,1,385.43,437,39.8,39.8,0,0,1,379,459.34s-.19.26-.2.29l-.15.22-.45.67a1.37,1.37,0,0,1-.15.21l-.37.56-.07.09h0l-.1.16h0l0,0,0,0a.36.36,0,0,1,0,.09h0l-.07.13h0l-.07.1-.33.5C370.6,472,360,478.48,346.79,480.87a15.91,15.91,0,0,1,.38,3.5c0,4.43-1.71,9.23-4.94,13.9l-.43.64-.53.78-.3-.19a.19.19,0,0,1,0,.08l.15,0,0,.09.12.08-.63.93-.43.65C333.32,511.27,317.31,522.82,294.59,522.82ZM269,444.46A34.17,34.17,0,0,0,264.21,462c0,18.52,14.59,33.59,32.52,33.59,14.77,0,22.91-10,25.58-13.26l.29-.36a4.21,4.21,0,0,1,1.39-1.1c-17.75-3.58-32.26-16.11-39.65-34.67-.94-2.35-2.41-5.95-4.48-10.95A32.92,32.92,0,0,0,269,444.46Zm42.44-10.21c5.49,13.63,13.78,20.25,25.34,20.25,9.91,0,15.25-3.73,18-6.95a16.89,16.89,0,0,0,1.85-7.41,19.38,19.38,0,0,0-5.12-13.07,11.47,11.47,0,0,0-8.44-3.58,15.66,15.66,0,0,0-2.5.22l-.16,0a4.22,4.22,0,0,1-.42,1.19,3,3,0,0,1-.29.49l-2,3a4.17,4.17,0,0,1-3.53,1.92h-1a4.19,4.19,0,0,1-4.18-4.19v-25.4a4.15,4.15,0,0,1,1-2.7,1.35,1.35,0,0,0,.12-.17l.71-1.06.13-.19.9-1.33a4.13,4.13,0,0,1,3.48-1.91h1a4.18,4.18,0,0,1,4,2.87,8,8,0,0,0,1.52.13,7.49,7.49,0,0,0,4.89-1.47,16.41,16.41,0,0,0,.87-5.67c0-2-.68-6.78-7-6.78-3.62,0-5.31,1.06-8.68,3.16-1.26.78-2.74,1.7-4.43,2.58v44.33a4.19,4.19,0,0,1-.74,2.38l-2,3h0l-.09.14a4.08,4.08,0,0,1-1.85,1.53,4,4,0,0,1-1.64.34,4.16,4.16,0,0,1-2.91-1.18A21.69,21.69,0,0,0,311.46,434.25ZM247,430.51l.22-.05.16-.23a60.79,60.79,0,0,1,22.43-19.06c-1.34-3.3-2.75-6.94-4.23-10.74-1.38-3.53-2.78-7.14-4.23-10.77Zm52-26.09c.67,0,1.33.07,2,.12a3.3,3.3,0,0,0-1-1.54,4.15,4.15,0,0,1-1.82-.65C298.46,403,298.75,403.73,299,404.42Z" transform="translate(-160.34 -277.07)"/><path class="cls-1" d="M282.05,338a5.85,5.85,0,0,1,4.6,2.21c3.55,4,3,10,.59,13.57l0,.06s0,0,0,0L285.74,356l0,.07-.46.69,0,.05-.05.08a8.5,8.5,0,0,1-1.06,1.32,10.63,10.63,0,0,1-6.34,3c4.34,10.33,12.76,30.44,19.31,46.13a62.48,62.48,0,0,1,7.12.54v-1.74c0-3.87-2.64-6-3.72-6a1.27,1.27,0,0,1-1.27-1.27v-1.21a1.28,1.28,0,0,1,.36-.89l0,0a.21.21,0,0,1,0-.06.43.43,0,0,1,0-.07.21.21,0,0,0,0-.06l0-.06,0-.07,0-.06,0,0a.43.43,0,0,1,0-.07l.05-.07,0,0,0-.06a.43.43,0,0,1,0-.07l.05-.07,0,0,.05-.07,0-.06a.21.21,0,0,1,0-.06l0-.06,0-.06.05-.07a.21.21,0,0,1,0-.06l0-.06,0-.06.05-.07,0-.06a.21.21,0,0,1,0-.06l0-.06,0-.06,0-.07.05-.06,0-.06a.21.21,0,0,1,0-.06.43.43,0,0,0,0-.07l.05-.06a.21.21,0,0,1,0-.06l0-.06,0-.06a.43.43,0,0,1,0-.07l0-.06,0-.06a.25.25,0,0,1,0-.07l0-.06,0-.06,0-.06,0-.06a.25.25,0,0,1,0-.07.21.21,0,0,1,0-.06,1.26,1.26,0,0,1,1.06-.6,2.45,2.45,0,0,0,1.26-.54,7.88,7.88,0,0,0,.32-2.24V365.28a1.25,1.25,0,0,1,.37-.89h0l.05-.07,0-.06a.43.43,0,0,1,0-.07l0-.05,0-.07,0-.07,0-.05,0-.06a.43.43,0,0,1,0-.07l0-.06,0-.06.05-.06a.18.18,0,0,1,.05-.07.09.09,0,0,1,0-.05.18.18,0,0,1,.05-.07.16.16,0,0,1,0-.07l0-.05.05-.07,0-.06.05-.07,0-.05,0-.07a.21.21,0,0,1,0-.06l0-.06a.25.25,0,0,0,0-.07l.05-.06a.21.21,0,0,1,0-.06l0-.06a.43.43,0,0,0,0-.07l0-.05.05-.07,0-.06a.21.21,0,0,1,0-.06l0-.07,0-.06.05-.06,0-.06a.21.21,0,0,1,0-.06.43.43,0,0,1,0-.07l0-.06.05-.06,0-.06,0-.06a.43.43,0,0,1,0-.07l0-.06.05-.06,0-.06a1.24,1.24,0,0,1,1-.61h1a1.27,1.27,0,0,1,1.13.7c.09.17.18.36.28.57,1.24,2.58,2.78,5.32,5.48,5.32,3.27,0,6.17-1.68,9.52-3.62,4.6-2.66,9.8-5.67,17.76-5.67,17.4,0,30.53,12,30.53,27.92A26.8,26.8,0,0,1,369,401.31l0,.06,0,.06,0,.07,0,.05-.05.08,0,.05,0,.06-.05.07,0,.06,0,.06-.05.07-.05.08,0,.06,0,.06-.08.11,0,.06,0,.06,0,.06-.05.07,0,.06-.05.06s0,.07-.05.07l-.06.11-.05.06-.05.08,0,.07,0,.06-.05.07-.1.16-.05.07-.05.07,0,.05-.17.25,0,.06-.05.07,0,.06,0,.05,0,.07,0,.06-.05.07,0,.06-.09.13a19.88,19.88,0,0,1-2.1,2.6,33.51,33.51,0,0,1,17.74,30,36.83,36.83,0,0,1-6,20.71l0,0,0,.07,0,0,0,.06,0,.06-.05.06,0,.07,0,.06,0,.07-.06.08-.07.11,0,.06,0,.05-.05.08,0,0-.06.08-.07.11,0,.06,0,.06-.05.07,0,.05,0,.06-.07.1-.06.09,0,.07-.05.06,0,.07,0,.05,0,.06,0,.06,0,.06-.05.08,0,.06L375,460l0,.07,0,.06,0,.06-.07.1,0,.07,0,.06-.05.07,0,.06-.05.07,0,.07s0,0,0,0l0,.06c-6.43,9.78-17.62,16-31.7,17.7a11.1,11.1,0,0,1,1.49,5.84c0,3.83-1.53,8.06-4.42,12.24l0,.05-.06.09,0,.07-.07.1-.05.07,0,.06-.13.19,0,.06,0,.06,0,.05-.1.14,0,.06,0,.07-.09.12,0,.07-.08.11,0,.06,0,.07,0,.05,0,.06-.05.07s-.05.07-.05.07l0,.06-.13.19,0,.06,0,.06-.13.19,0,.07-.05.06,0,.05,0,.06,0,.06-.05.07,0,.07,0,.06-.13.19,0,.06,0,.05c-6.41,9.31-21.55,20.19-43.14,20.19-27.72,0-50.38-18.15-55.11-44.13-2.07-9.69-6.83-10-7.36-10a1.27,1.27,0,0,1-1.27-1.27v-1.21a1.28,1.28,0,0,1,.36-.89l0,0,0-.05a.43.43,0,0,1,0-.07l0-.06.05-.06a.25.25,0,0,1,0-.07l0-.06,0-.06,0-.06,0-.06a.16.16,0,0,1,0-.07l0-.06,0-.06.05-.06a.16.16,0,0,1,0-.07l0-.06,0-.06,0-.06,0-.06.05-.07,0-.06,0-.06,0-.06,0-.07,0-.05.05-.07,0-.06.05-.07,0-.05,0-.07a.21.21,0,0,1,0-.06l0-.07,0-.05,0-.07,0-.06,0-.06,0-.07,0-.05a.43.43,0,0,1,0-.07l.05-.06a.21.21,0,0,1,0-.06l0-.07,0-.06,0-.06.05-.07a.21.21,0,0,1,0-.06l0-.06,0-.06a1.27,1.27,0,0,1,1.06-.61c.56,0,2.28-.84,4.07-2.84-4.74-.94-9.75-3.09-14.23-5a72.14,72.14,0,0,0-7-2.77v.05a5.93,5.93,0,0,1-1,3.34l-2.11,3.12a5.88,5.88,0,0,1-9.83-.09,10.76,10.76,0,0,1-.34-12.62l.18-.26.07-.11,0-.06.09-.13,0-.06,0-.06,0-.07.2-.3,0-.06.34-.51.08-.11.18-.28,0-.05.08-.12,0-.05.27-.39,0-.06.16-.24,0-.07.06-.07a8.12,8.12,0,0,1,1.05-1.31,11.38,11.38,0,0,1,8.38-3.11,26.24,26.24,0,0,1,6.42.91l11.25-31.23a2.33,2.33,0,0,0-.38-2.27,5.38,5.38,0,0,0-3.42-2.11,1.27,1.27,0,0,1-1.27-1.27v-.75a1.25,1.25,0,0,1,.37-.89v0l.05-.07,0-.06,0-.06,0-.06,0-.06.05-.07,0-.05,0-.07,0-.06a.43.43,0,0,0,0-.07l0-.06,0-.06,0-.06,0-.06.05-.07,0-.05,0-.07,0-.07,0-.06.05-.06,0-.06,0-.06,0-.06,0-.07,0-.06,0-.06.05-.06,0-.06,0-.07,0-.06,0-.06.05-.06a.16.16,0,0,1,0-.07l0-.06a.21.21,0,0,0,0-.06l0-.06,0-.06a.16.16,0,0,1,0-.07l0-.06,0-.06a.21.21,0,0,0,0-.06l.05-.07,0-.06,0-.06,0-.06,0-.06.05-.07a1.25,1.25,0,0,1,1-.6c1,0,4.44-1.34,7-3.92l.09-.22L249.24,359c1.39-3.85,1-5.29.84-5.74a5.92,5.92,0,0,1-1,3.12l-.47.69,0,.06-.12.18,0,.06-.93,1.37,0,.05-.13.2,0,.06-.29.44a5.88,5.88,0,0,1-9.84-.08,10.75,10.75,0,0,1-.34-12.62l.17-.25.07-.1.06-.09,0-.05.18-.26,0-.05,0-.06.14-.2,0-.07,0-.05,0-.06.18-.25,0-.06.26-.39.07-.1,0-.07.05-.07.54-.8,0-.06.05-.07a8.62,8.62,0,0,1,1-1.26,11.4,11.4,0,0,1,8.39-3.11c5.93,0,13.08,3,18.83,5.44,2.55,1.08,5,2.11,6.93,2.7,0-.15,0-.31,0-.46a5.8,5.8,0,0,1,1-3.33l1.21-1.8,0-.06.85-1.25a5.85,5.85,0,0,1,4.89-2.62m39.09,99a1.24,1.24,0,0,1-.88-.36,26.73,26.73,0,0,0-13.84-6.94c1.34,3.22,2.09,5.05,2.25,5.44,5.9,14.8,15.36,22.3,28.13,22.3,11.25,0,17.32-4.45,20.44-8.23a19.8,19.8,0,0,0,2.34-9,22.21,22.21,0,0,0-6-15.16,14.35,14.35,0,0,0-10.52-4.44,18.16,18.16,0,0,0-3,.25,7.19,7.19,0,0,0-2.41.82,6.88,6.88,0,0,0-.11,1.31,1.24,1.24,0,0,1-.17.63l-.11.19a.61.61,0,0,1,0,.06l0,.05a.43.43,0,0,1,0,.07l0,.06-.05.06,0,.06a.43.43,0,0,1,0,.07l0,.06,0,.06,0,.06-.05.07,0,.06,0,.06,0,.06-.05.07a.1.1,0,0,1,0,.05.16.16,0,0,1,0,.07l0,.07,0,.05,0,.07,0,.06,0,.06,0,.06,0,.07,0,.06,0,.07,0,.05,0,.06,0,.08,0,.05-.05.06,0,.07,0,.06,0,.06,0,.06-.05.07,0,.06,0,.06,0,.06,0,.06,0,.07,0,.06a.43.43,0,0,0,0,.07.1.1,0,0,0,0,.05l-.05.07a.21.21,0,0,1,0,.06.1.1,0,0,1,0,.05.43.43,0,0,1,0,.07l0,.06a1.28,1.28,0,0,1-1.08.59h-1a1.27,1.27,0,0,1-1.27-1.27v-25.4a1.28,1.28,0,0,1,.38-.9h0l.05-.07,0-.05a.43.43,0,0,1,0-.07l0-.06,0-.06.05-.07,0-.06,0-.06,0-.06,0-.07,0-.06a.1.1,0,0,1,0-.05.43.43,0,0,1,0-.07.25.25,0,0,0,0-.07.1.1,0,0,0,0-.05l0-.07,0-.06,0-.06,0-.06.05-.07,0-.06,0-.06,0-.07,0-.06a.21.21,0,0,0,0-.06l.05-.06,0-.06,0-.07.05-.06,0,0,0-.07a.43.43,0,0,1,0-.07l0-.05,0-.07.05-.06a.25.25,0,0,1,0-.07.1.1,0,0,1,0-.05.16.16,0,0,1,0-.07l0-.06,0-.06a.21.21,0,0,0,0-.06l.05-.07,0-.06a.21.21,0,0,0,0-.06l0-.06,0-.07,0-.06a1.24,1.24,0,0,1,1.05-.61h1a1.27,1.27,0,0,1,1.27,1.28c0,.86,1.3,1.73,4.22,1.73a10.09,10.09,0,0,0,7.34-2.67,18.45,18.45,0,0,0,1.34-7.39c0-1-.28-9.69-9.92-9.69-4.45,0-6.75,1.43-10.23,3.59a50.24,50.24,0,0,1-5.8,3.24v46.15a1.31,1.31,0,0,1-.24.75l0,.05a.35.35,0,0,1,0,.08l0,0,0,.06,0,.07,0,.05a.18.18,0,0,1-.05.07.16.16,0,0,1,0,.07l0,.05-.05.07a.21.21,0,0,1,0,.06.43.43,0,0,0,0,.07l0,.05s0,.05,0,.06a.16.16,0,0,1,0,.07.21.21,0,0,1,0,.06l0,.07,0,.06-.05.06,0,.06,0,.05a.35.35,0,0,0-.05.08l-.05.06,0,.06-.05.06,0,.06,0,.06a.18.18,0,0,1-.05.07.21.21,0,0,1,0,.06l0,.06-.05.06,0,.07,0,.06-.05.07,0,.05a.25.25,0,0,1,0,.07l0,.06-.05.06a.13.13,0,0,1,0,.06l0,.06-.05.07,0,.06,0,.06,0,.06-.05.07,0,.06,0,.06,0,.07,0,.05-.05.07a1.25,1.25,0,0,1-1.07.59M241,442.71a3.46,3.46,0,0,1,0-.46,5.92,5.92,0,0,1,1-3.33l.67-1,0-.06s0-.06,0-.06l.21-.32.07-.11.06-.09,0-.05.3-.45,0-.06.62-.91a5.88,5.88,0,0,1,4.79-2.64l.2-.3,0-.06,0-.06,0-.06,0-.07,0-.06.21-.32s0-.06.05-.06l0-.06.11-.18,0-.06a58.78,58.78,0,0,1,23.79-19.31c-3.57-8.51-7.74-20-12.43-31.13L239.78,442.3c.45.16.86.3,1.25.41m55.7,55.79c16.16,0,24.95-10.79,27.84-14.33l.29-.35a1.27,1.27,0,0,1,1-.46H326a1.25,1.25,0,0,1,1,.67,3.36,3.36,0,0,0,2.35,1.35,5.39,5.39,0,0,1-.08-1.2,5.72,5.72,0,0,1,1.13-3.24h0l0-.07.05-.06h0l0-.06a.3.3,0,0,0,0-.07h0l0-.06h0l0-.05a.31.31,0,0,1,.05-.07h0a.17.17,0,0,1,0-.06h0l0-.07,0-.06h0a.25.25,0,0,0,0-.06.31.31,0,0,1,.05-.07h0l0-.05L331,480l.09-.13h0v0l0-.06.07-.1,0-.06h0l.05-.06,0-.06,0,0,.06-.1h0l0-.06h0s0,0,0-.06v0a1.16,1.16,0,0,0,.11-.16h0l0-.06.06-.1h0c-20-1.11-36.62-13.59-44.67-33.8-1.13-2.83-3-7.47-5.66-13.81a35.62,35.62,0,0,0-14.79,11.51A37.16,37.16,0,0,0,261.29,462c0,20.13,15.9,36.5,35.44,36.5M282.05,332.11a11.72,11.72,0,0,0-9.76,5.23l-.82,1.22,0,.05-.87,1.29-1.19-.51c-6.24-2.62-14-5.89-21.1-5.89a17.21,17.21,0,0,0-12.52,4.82,14,14,0,0,0-1.74,2.13l-.07.11,0,0-.51.75-.08.12,0,.05-.07.09-.26.4,0,0-.16.24c-.06.09-.12.17-.17.26l-.09.12,0,0a.61.61,0,0,1-.07.1l0,0-.15.23-.06.08,0,.05-.07.11-.18.27a16.64,16.64,0,0,0,.44,19.29,11.67,11.67,0,0,0,7.51,4.91l-6.62,18.37a10.17,10.17,0,0,1-2.63,1.48,7.06,7.06,0,0,0-5.23,3.1.57.57,0,0,0-.08.13l0,0-.07.11,0,0,0,.05-.1.15,0,0,0,0a.61.61,0,0,1-.07.1l0,.06-.05.08h0l-.06.08-.08.13,0,.06h0l0,.07v0l-.08.12-.06.08,0,0,0,0-.07.11,0,.06-.05.07h0l-.07.09-.05.09-.09.13-.09.12-.08.13-.1.14h0v0a.71.71,0,0,0-.1.14l-.08.12,0,0a7,7,0,0,0-1.55,4.43v.75a7.12,7.12,0,0,0,4.37,6.56l-8.54,23.71a25.86,25.86,0,0,0-2.6-.13,17.24,17.24,0,0,0-12.51,4.81,14.45,14.45,0,0,0-1.76,2.17c0,.07-.09.14-.14.2l-.12.19,0,0-.28.43,0,0,0,.06-.06.08,0,.05-.17.26-.06.07,0,.06-.32.49,0,0-.21.31,0,.05a.61.61,0,0,1-.07.1.35.35,0,0,1-.05.08l-.09.13,0,.05,0,0,0,0h0l-.07.09-.17.26a16.67,16.67,0,0,0,.44,19.29,11.72,11.72,0,0,0,19.44-.1l1.51-2.24,1.5.64c1.61.69,3.3,1.42,5,2.11l0,0,0,.06h0l-.08.12-.06.09h0l0,.05,0,0a7.06,7.06,0,0,0-1.55,4.42v1.21a7.11,7.11,0,0,0,6.44,7.07c.36.31,1.49,1.54,2.31,5.31,5.27,28.75,30.27,48.82,60.83,48.82,23.85,0,40.74-12.23,48-22.71l0-.07,0-.06.05-.07.08-.11,0-.05,0-.06.06-.08,0,0,.06-.1h0l0-.05,0,0,.12-.19.07-.1.07-.1,0,0,.1-.15a.71.71,0,0,0,.1-.14l0,0,.05-.07.05-.08v0h0l0-.05,0,0,0-.06.08-.12,0,0,.07-.1,0-.06.05-.07,0-.06.07-.1,0,0a.75.75,0,0,0,.07-.12l0,0,.11-.16a.61.61,0,0,0,.07-.1l.05-.07.08-.12.05-.08.06-.09h0c3.54-5.15,5.41-10.51,5.41-15.51,0-.4,0-.79,0-1.18,12.73-2.91,23-9.57,29.28-19.15l.13-.18.05-.08,0,0,.05-.07.09-.14,0-.06.05-.07,0-.06.05-.07,0,0,0,0,.08-.12h0l0-.06,0,0a1.74,1.74,0,0,0,.11-.18h0a.41.41,0,0,0,.07-.11s0,0,0-.05l.07-.1.05-.07a.56.56,0,0,1,0-.08l0,0,.09-.14.12-.17.09-.14,0,0,.08-.12h0l0-.06.06-.08.05-.08.17-.25,0-.05h0l.07-.09,0-.07h0a.7.7,0,0,0,.06-.09A42.6,42.6,0,0,0,388.35,437a39.26,39.26,0,0,0-15.18-31.48v0l.07-.09,0,0,0-.06.05-.08.05-.08,0,0h0v0l.07-.1,0-.06v0l0,0,0-.06a1.16,1.16,0,0,0,.11-.16l0-.05,0,0a33.81,33.81,0,0,0-5.34-42.78,37.87,37.87,0,0,0-25.73-9.52c-9.53,0-15.71,3.58-20.68,6.45a22.35,22.35,0,0,1-5.78,2.75,16.44,16.44,0,0,1-1-1.93l-.33-.67a7.08,7.08,0,0,0-6.34-3.91h-1a7.07,7.07,0,0,0-5.89,3.18l-.05.07-.06.1,0,0s0,0,0,0l0,.07v0l-.05.07-.08.12v0l-.09.13h0l-.05.08h0l-.09.14,0,0-.07.11-.06.08,0,.05,0,.07-.07.11-.06.08,0,0-.07.09-.09.14v0l0,0c0,.06-.07.11-.1.16l0,.05a1,1,0,0,0-.08.11l-.07.11-.11.16v0l-.09.13,0,0-.08.12a7,7,0,0,0-1.55,4.43v23.5a7.1,7.1,0,0,0-1.67,1.78l-.07.11a.21.21,0,0,0,0,.06l0,0,0,.05-11-26.33a15.55,15.55,0,0,0,2.74-2.2,13.65,13.65,0,0,0,1.78-2.21l0,0,0,0,.49-.72,0-.08,1.41-2.09,0-.05h0l.07-.1h0c3.62-5.48,4.44-14.28-1-20.55a11.64,11.64,0,0,0-9.06-4.29Zm48.34,57.82c1.13-.64,2.14-1.27,3-1.83,3.18-2,4.37-2.72,7.15-2.72,1.11,0,4.07,0,4.09,3.86a15.27,15.27,0,0,1-.43,3.79,5.44,5.44,0,0,1-2.12.43,7.08,7.08,0,0,0-5.79-3h-1a7,7,0,0,0-5,2.07v-2.6ZM254.5,418l7-20,1.35,3.48c1.13,2.9,2.22,5.7,3.27,8.33A67.51,67.51,0,0,0,254.5,418Zm88,8.42.57,0a8.58,8.58,0,0,1,6.37,2.71,16.37,16.37,0,0,1,4.27,11,13.82,13.82,0,0,1-1.38,5.82c-2.41,2.69-7,5.67-15.56,5.67-7.18,0-13-3-17.5-9a7.55,7.55,0,0,0,1.84.24,7.11,7.11,0,0,0,5.93-3.2l.05-.07.05-.07,0-.05.11-.16h0l0,0,.08-.11v0l.1-.15v0l0,0a1,1,0,0,1,.08-.11.43.43,0,0,1,0-.07h0a1.63,1.63,0,0,0,.11-.17l0,0,0-.05.07-.1.06-.09,0-.05.07-.12.09-.12v0l.08-.12,0-.05.08-.11,0-.06a1.4,1.4,0,0,0,.1-.16l0,0,.06-.08a.57.57,0,0,0,.08-.13l.1-.13a.35.35,0,0,1,.05-.08.43.43,0,0,0,0-.07.18.18,0,0,0,.05-.07l.09-.12h0l0-.08a.36.36,0,0,0,.07-.1,7,7,0,0,0,1.22-3.87,7.16,7.16,0,0,0,2.85.59h1a7,7,0,0,0,5.94-3.2l0,0,.05-.06,0-.06.05-.07h0a.22.22,0,0,0,0-.08.18.18,0,0,0,.05-.07.86.86,0,0,0,.07-.1l0-.06h0l.08-.13.05-.06a.35.35,0,0,1,.05-.08.35.35,0,0,0,.05-.08l.06-.08h0l.08-.12,0,0h0l0,0,.08-.11,0,0,0-.05.06-.09.11-.16,0-.07a.35.35,0,0,1,.05-.08l0-.06h0a.41.41,0,0,0,.05-.09.44.44,0,0,0,.08-.11l.1-.15,0,0,0,0,.1-.15.05-.08h0l0-.06.06-.1.1-.14,0,0,0-.06.09-.13q.19-.3.36-.6ZM271.44,446.1a30.29,30.29,0,0,1,7-6.61c1.4,3.4,2.45,6,3.17,7.79,7.07,17.73,20.34,30.23,36.75,35.19-3.54,4-10.42,10.2-21.64,10.2-16.32,0-29.6-13.76-29.6-30.67a31.28,31.28,0,0,1,4.31-15.9Z" transform="translate(-160.34 -277.07)"/><path class="cls-2" d="M282.05,338a5.85,5.85,0,0,1,4.6,2.21c3.55,4,3,10,.59,13.57l0,.06s0,0,0,0L285.74,356l0,.07-.46.69,0,.05-.05.08a8.5,8.5,0,0,1-1.06,1.32,10.63,10.63,0,0,1-6.34,3c4.34,10.33,12.76,30.44,19.31,46.13a62.48,62.48,0,0,1,7.12.54v-1.74c0-3.87-2.64-6-3.72-6a1.27,1.27,0,0,1-1.27-1.27v-1.21a1.28,1.28,0,0,1,.36-.89l0,0a.21.21,0,0,1,0-.06.43.43,0,0,1,0-.07.21.21,0,0,0,0-.06l0-.06,0-.07,0-.06,0,0a.43.43,0,0,1,0-.07l.05-.07,0,0,0-.06a.43.43,0,0,1,0-.07l.05-.07,0,0,.05-.07,0-.06a.21.21,0,0,1,0-.06l0-.06,0-.06.05-.07a.21.21,0,0,1,0-.06l0-.06,0-.06.05-.07,0-.06a.21.21,0,0,1,0-.06l0-.06,0-.06,0-.07.05-.06,0-.06a.21.21,0,0,1,0-.06.43.43,0,0,0,0-.07l.05-.06a.21.21,0,0,1,0-.06l0-.06,0-.06a.43.43,0,0,1,0-.07l0-.06,0-.06a.25.25,0,0,1,0-.07l0-.06,0-.06,0-.06,0-.06a.25.25,0,0,1,0-.07.21.21,0,0,1,0-.06,1.26,1.26,0,0,1,1.06-.6,2.45,2.45,0,0,0,1.26-.54,7.88,7.88,0,0,0,.32-2.24V365.28a1.25,1.25,0,0,1,.37-.89h0l.05-.07,0-.06a.43.43,0,0,1,0-.07l0-.05,0-.07,0-.07,0-.05,0-.06a.43.43,0,0,1,0-.07l0-.06,0-.06.05-.06a.18.18,0,0,1,.05-.07.09.09,0,0,1,0-.05.18.18,0,0,1,.05-.07.16.16,0,0,1,0-.07l0-.05.05-.07,0-.06.05-.07,0-.05,0-.07a.21.21,0,0,1,0-.06l0-.06a.25.25,0,0,0,0-.07l.05-.06a.21.21,0,0,1,0-.06l0-.06a.43.43,0,0,0,0-.07l0-.05.05-.07,0-.06a.21.21,0,0,1,0-.06l0-.07,0-.06.05-.06,0-.06a.21.21,0,0,1,0-.06.43.43,0,0,1,0-.07l0-.06.05-.06,0-.06,0-.06a.43.43,0,0,1,0-.07l0-.06.05-.06,0-.06a1.24,1.24,0,0,1,1-.61h1a1.27,1.27,0,0,1,1.13.7c.09.17.18.36.28.57,1.24,2.58,2.78,5.32,5.48,5.32,3.27,0,6.17-1.68,9.52-3.62,4.6-2.66,9.8-5.67,17.76-5.67,17.4,0,30.53,12,30.53,27.92A26.8,26.8,0,0,1,369,401.31l0,.06,0,.06,0,.07,0,.05-.05.08,0,.05,0,.06-.05.07,0,.06,0,.06-.05.07-.05.08,0,.06,0,.06-.08.11,0,.06,0,.06,0,.06-.05.07,0,.06-.05.06s0,.07-.05.07l-.06.11-.05.06-.05.08,0,.07,0,.06-.05.07-.1.16-.05.07-.05.07,0,.05-.17.25,0,.06-.05.07,0,.06,0,.05,0,.07,0,.06-.05.07,0,.06-.09.13a19.88,19.88,0,0,1-2.1,2.6,33.51,33.51,0,0,1,17.74,30,36.83,36.83,0,0,1-6,20.71l0,0,0,.07,0,0,0,.06,0,.06-.05.06,0,.07,0,.06,0,.07-.06.08-.07.11,0,.06,0,.05-.05.08,0,0-.06.08-.07.11,0,.06,0,.06-.05.07,0,.05,0,.06-.07.1-.06.09,0,.07-.05.06,0,.07,0,.05,0,.06,0,.06,0,.06-.05.08,0,.06L375,460l0,.07,0,.06,0,.06-.07.1,0,.07,0,.06-.05.07,0,.06-.05.07,0,.07s0,0,0,0l0,.06c-6.43,9.78-17.62,16-31.7,17.7a11.1,11.1,0,0,1,1.49,5.84c0,3.83-1.53,8.06-4.42,12.24l0,.05-.06.09,0,.07-.07.1-.05.07,0,.06-.13.19,0,.06,0,.06,0,.05-.1.14,0,.06,0,.07-.09.12,0,.07-.08.11,0,.06,0,.07,0,.05,0,.06-.05.07s-.05.07-.05.07l0,.06-.13.19,0,.06,0,.06-.13.19,0,.07-.05.06,0,.05,0,.06,0,.06-.05.07,0,.07,0,.06-.13.19,0,.06,0,.05c-6.41,9.31-21.55,20.19-43.14,20.19-27.72,0-50.38-18.15-55.11-44.13-2.07-9.69-6.83-10-7.36-10a1.27,1.27,0,0,1-1.27-1.27v-1.21a1.28,1.28,0,0,1,.36-.89l0,0,0-.05a.43.43,0,0,1,0-.07l0-.06.05-.06a.25.25,0,0,1,0-.07l0-.06,0-.06,0-.06,0-.06a.16.16,0,0,1,0-.07l0-.06,0-.06.05-.06a.16.16,0,0,1,0-.07l0-.06,0-.06,0-.06,0-.06.05-.07,0-.06,0-.06,0-.06,0-.07,0-.05.05-.07,0-.06.05-.07,0-.05,0-.07a.21.21,0,0,1,0-.06l0-.07,0-.05,0-.07,0-.06,0-.06,0-.07,0-.05a.43.43,0,0,1,0-.07l.05-.06a.21.21,0,0,1,0-.06l0-.07,0-.06,0-.06.05-.07a.21.21,0,0,1,0-.06l0-.06,0-.06a1.27,1.27,0,0,1,1.06-.61c.56,0,2.28-.84,4.07-2.84-4.74-.94-9.75-3.09-14.23-5a72.14,72.14,0,0,0-7-2.77v.05a5.93,5.93,0,0,1-1,3.34l-2.11,3.12a5.88,5.88,0,0,1-9.83-.09,10.76,10.76,0,0,1-.34-12.62l.18-.26.07-.11,0-.06.09-.13,0-.06,0-.06,0-.07.2-.3,0-.06.34-.51.08-.11.18-.28,0-.05.08-.12,0-.05.27-.39,0-.06.16-.24,0-.07.06-.07a8.12,8.12,0,0,1,1.05-1.31,11.38,11.38,0,0,1,8.38-3.11,26.24,26.24,0,0,1,6.42.91l11.25-31.23a2.33,2.33,0,0,0-.38-2.27,5.38,5.38,0,0,0-3.42-2.11,1.27,1.27,0,0,1-1.27-1.27v-.75a1.25,1.25,0,0,1,.37-.89v0l.05-.07,0-.06,0-.06,0-.06,0-.06.05-.07,0-.05,0-.07,0-.06a.43.43,0,0,0,0-.07l0-.06,0-.06,0-.06,0-.06.05-.07,0-.05,0-.07,0-.07,0-.06.05-.06,0-.06,0-.06,0-.06,0-.07,0-.06,0-.06.05-.06,0-.06,0-.07,0-.06,0-.06.05-.06a.16.16,0,0,1,0-.07l0-.06a.21.21,0,0,0,0-.06l0-.06,0-.06a.16.16,0,0,1,0-.07l0-.06,0-.06a.21.21,0,0,0,0-.06l.05-.07,0-.06,0-.06,0-.06,0-.06.05-.07a1.25,1.25,0,0,1,1-.6c1,0,4.44-1.34,7-3.92l.09-.22L249.24,359c1.39-3.85,1-5.29.84-5.74a5.92,5.92,0,0,1-1,3.12l-.47.69,0,.06-.12.18,0,.06-.93,1.37,0,.05-.13.2,0,.06-.29.44a5.88,5.88,0,0,1-9.84-.08,10.75,10.75,0,0,1-.34-12.62l.17-.25.07-.1.06-.09,0-.05.18-.26,0-.05,0-.06.14-.2,0-.07,0-.05,0-.06.18-.25,0-.06.26-.39.07-.1,0-.07.05-.07.54-.8,0-.06.05-.07a8.62,8.62,0,0,1,1-1.26,11.4,11.4,0,0,1,8.39-3.11c5.93,0,13.08,3,18.83,5.44,2.55,1.08,5,2.11,6.93,2.7,0-.15,0-.31,0-.46a5.8,5.8,0,0,1,1-3.33l1.21-1.8,0-.06.85-1.25a5.85,5.85,0,0,1,4.89-2.62m39.09,99a1.24,1.24,0,0,1-.88-.36,26.73,26.73,0,0,0-13.84-6.94c1.34,3.22,2.09,5.05,2.25,5.44,5.9,14.8,15.36,22.3,28.13,22.3,11.25,0,17.32-4.45,20.44-8.23a19.8,19.8,0,0,0,2.34-9,22.21,22.21,0,0,0-6-15.16,14.35,14.35,0,0,0-10.52-4.44,18.16,18.16,0,0,0-3,.25,7.19,7.19,0,0,0-2.41.82,6.88,6.88,0,0,0-.11,1.31,1.24,1.24,0,0,1-.17.63l-.11.19a.61.61,0,0,1,0,.06l0,.05a.43.43,0,0,1,0,.07l0,.06-.05.06,0,.06a.43.43,0,0,1,0,.07l0,.06,0,.06,0,.06-.05.07,0,.06,0,.06,0,.06-.05.07a.1.1,0,0,1,0,.05.16.16,0,0,1,0,.07l0,.07,0,.05,0,.07,0,.06,0,.06,0,.06,0,.07,0,.06,0,.07,0,.05,0,.06,0,.08,0,.05-.05.06,0,.07,0,.06,0,.06,0,.06-.05.07,0,.06,0,.06,0,.06,0,.06,0,.07,0,.06a.43.43,0,0,0,0,.07.1.1,0,0,0,0,.05l-.05.07a.21.21,0,0,1,0,.06.1.1,0,0,1,0,.05.43.43,0,0,1,0,.07l0,.06a1.28,1.28,0,0,1-1.08.59h-1a1.27,1.27,0,0,1-1.27-1.27v-25.4a1.28,1.28,0,0,1,.38-.9h0l.05-.07,0-.05a.43.43,0,0,1,0-.07l0-.06,0-.06.05-.07,0-.06,0-.06,0-.06,0-.07,0-.06a.1.1,0,0,1,0-.05.43.43,0,0,1,0-.07.25.25,0,0,0,0-.07.1.1,0,0,0,0-.05l0-.07,0-.06,0-.06,0-.06.05-.07,0-.06,0-.06,0-.07,0-.06a.21.21,0,0,0,0-.06l.05-.06,0-.06,0-.07.05-.06,0,0,0-.07a.43.43,0,0,1,0-.07l0-.05,0-.07.05-.06a.25.25,0,0,1,0-.07.1.1,0,0,1,0-.05.16.16,0,0,1,0-.07l0-.06,0-.06a.21.21,0,0,0,0-.06l.05-.07,0-.06a.21.21,0,0,0,0-.06l0-.06,0-.07,0-.06a1.24,1.24,0,0,1,1.05-.61h1a1.27,1.27,0,0,1,1.27,1.28c0,.86,1.3,1.73,4.22,1.73a10.09,10.09,0,0,0,7.34-2.67,18.45,18.45,0,0,0,1.34-7.39c0-1-.28-9.69-9.92-9.69-4.45,0-6.75,1.43-10.23,3.59a50.24,50.24,0,0,1-5.8,3.24v46.15a1.31,1.31,0,0,1-.24.75l0,.05a.35.35,0,0,1,0,.08l0,0,0,.06,0,.07,0,.05a.18.18,0,0,1-.05.07.16.16,0,0,1,0,.07l0,.05-.05.07a.21.21,0,0,1,0,.06.43.43,0,0,0,0,.07l0,.05s0,.05,0,.06a.16.16,0,0,1,0,.07.21.21,0,0,1,0,.06l0,.07,0,.06-.05.06,0,.06,0,.05a.35.35,0,0,0-.05.08l-.05.06,0,.06-.05.06,0,.06,0,.06a.18.18,0,0,1-.05.07.21.21,0,0,1,0,.06l0,.06-.05.06,0,.07,0,.06-.05.07,0,.05a.25.25,0,0,1,0,.07l0,.06-.05.06a.13.13,0,0,1,0,.06l0,.06-.05.07,0,.06,0,.06,0,.06-.05.07,0,.06,0,.06,0,.07,0,.05-.05.07a1.25,1.25,0,0,1-1.07.59M241,442.71a3.46,3.46,0,0,1,0-.46,5.92,5.92,0,0,1,1-3.33l.67-1,0-.06s0-.06,0-.06l.21-.32.07-.11.06-.09,0-.05.3-.45,0-.06.62-.91a5.88,5.88,0,0,1,4.79-2.64l.2-.3,0-.06,0-.06,0-.06,0-.07,0-.06.21-.32s0-.06.05-.06l0-.06.11-.18,0-.06a58.78,58.78,0,0,1,23.79-19.31c-3.57-8.51-7.74-20-12.43-31.13L239.78,442.3c.45.16.86.3,1.25.41m55.7,55.79c16.16,0,24.95-10.79,27.84-14.33l.29-.35a1.27,1.27,0,0,1,1-.46H326a1.25,1.25,0,0,1,1,.67,3.36,3.36,0,0,0,2.35,1.35,5.39,5.39,0,0,1-.08-1.2,5.72,5.72,0,0,1,1.13-3.24h0l0-.06.05-.06h0l0-.06a.3.3,0,0,0,0-.07h0l0-.06h0l0-.05a.31.31,0,0,1,.05-.07h0a.17.17,0,0,1,0-.06h0l0-.07,0-.06h0a.25.25,0,0,0,0-.06.31.31,0,0,1,.05-.07h0l0-.05L331,480l.09-.13h0v0l0-.06.07-.1,0-.06h0l.05-.06,0-.06,0,0,.06-.1h0l0-.06h0s0,0,0-.06v0a1.16,1.16,0,0,0,.11-.16h0l0-.06.06-.1h0c-20-1.11-36.62-13.59-44.67-33.8-1.13-2.83-3-7.47-5.66-13.81a35.62,35.62,0,0,0-14.79,11.51A37.16,37.16,0,0,0,261.29,462c0,20.13,15.9,36.5,35.44,36.5M282.05,333.28a10.5,10.5,0,0,0-8.78,4.71l-.83,1.22,0,.05-1.22,1.81-.18.27-2.09-.87c-6.13-2.59-13.76-5.81-20.64-5.81a16.09,16.09,0,0,0-11.69,4.48,12.88,12.88,0,0,0-1.6,2l-.07.1,0,0-.51.76-.08.11,0,.05-.07.1-.27.39,0,.05-.15.23-.17.25-.1.15,0,0a.56.56,0,0,1-.05.08l0,.06-.14.21-.06.08,0,.06-.07.11-.18.26a15.49,15.49,0,0,0,.43,18,10.47,10.47,0,0,0,8.16,4.62l-7.23,20.06a11.19,11.19,0,0,1-3.39,1.92,6,6,0,0,0-4.5,2.61l-.07.11,0,0-.07.11,0,0,0,.06h0l-.09.13,0,.05,0,0-.07.09,0,.07-.05.06v0a.35.35,0,0,0-.05.08l-.08.11,0,.06v0l0,.07h0l0,.09h0v0a.61.61,0,0,0-.07.1l0,0,0,0-.08.12,0,.05-.05.07v0l-.06.09-.06.08h0l-.08.13-.09.12h0l-.08.12-.1.14h0v0l-.09.14-.08.12,0,.05v0a5.9,5.9,0,0,0-1.33,3.74v.75a5.94,5.94,0,0,0,4.72,5.81l-9.27,25.72a26.67,26.67,0,0,0-3.38-.23,16.08,16.08,0,0,0-11.68,4.48,13.06,13.06,0,0,0-1.61,2l-.16.23-.12.17,0,0-.28.42-.06.09-.06.09,0,.05-.18.26-.05.08,0,0-.34.51v0l-.21.31,0,.05a.36.36,0,0,0-.07.1l-.05.07-.09.13,0,.05,0,0,0,0v0l-.06.09-.17.25a15.48,15.48,0,0,0,.42,18,10.55,10.55,0,0,0,17.51-.06l2.06-3.05,2.39,1c2,.87,4.16,1.78,6.35,2.63l0,.06,0,.08-.1.14,0,0,0,.05,0,.05a.15.15,0,0,0,0,.06l-.09.12,0,0,0,.05,0,.07-.07.09a.41.41,0,0,0,0,.09l0,0-.05.07-.09.14,0,0,0,.05,0,.05,0,0-.07.1-.06.09v0l0,0-.05.07a5.88,5.88,0,0,0-1.32,3.73v1.21a6,6,0,0,0,5.64,5.93c.31.15,2,1.19,3.08,6.22,5.17,28.2,29.7,47.88,59.69,47.88,23.4,0,39.93-12,47-22.2l0-.06,0-.05a.35.35,0,0,0,.05-.08l.09-.12.06-.1.06-.08v0l.08-.12,0-.05,0,0,.15-.22.05-.08.06-.09,0,0,.11-.16.09-.13,0,0,.05-.07,0-.05,0,0,0,0,0,0,.07-.09.08-.12,0-.06.06-.09,0-.05.05-.07,0-.06.09-.13h0a.43.43,0,0,1,0-.07l0,0h0l0,0,.11-.17.06-.09.05-.07.08-.12h0l.06-.08.05-.07v0c3.41-5,5.22-10.08,5.22-14.85a18.39,18.39,0,0,0-.12-2.11c12.9-2.71,23.27-9.29,29.56-18.86l0,0,.1-.16.06-.08,0,0,.05-.08.08-.11.05-.07,0-.07,0-.06.05-.07,0-.06,0,0a.61.61,0,0,1,.07-.1v0l0-.06,0-.05h0a1.2,1.2,0,0,0,.11-.17l0,0,.06-.09,0,0h0a.61.61,0,0,0,.07-.1l.06-.09.06-.08,0,0,.11-.16.09-.14.09-.13,0-.06h0l.06-.1,0,0,0-.07.06-.08a.35.35,0,0,0,.05-.08,1.88,1.88,0,0,0,.16-.23l0-.05,0,0v0l.06-.08,0-.07h0l.05-.08A41.41,41.41,0,0,0,387.18,437a38.11,38.11,0,0,0-15.6-31.22l.06-.09v0l.11-.15h0l.09-.13h0l.09-.14h0l0-.05,0-.06.07-.09,0,0,0,0,.05-.07,0,0,.06-.09,0,0,0-.05.05-.08.05-.08,0,0,0,0h0a.61.61,0,0,0,.07-.1l0-.05,0,0,0,0,.05-.08.09-.14,0,0,0,0a31.4,31.4,0,0,0,5.09-17.89c0-18.58-15.14-32.59-35.2-32.59-9.21,0-15.25,3.5-20.1,6.3-2.74,1.59-4.93,2.86-6.88,3a10.93,10.93,0,0,1-1.57-2.66c-.11-.23-.22-.46-.32-.65a5.91,5.91,0,0,0-5.3-3.27h-1a5.89,5.89,0,0,0-4.92,2.66.35.35,0,0,0-.05.08l-.06.08,0,.06,0,0a.43.43,0,0,0,0,.07l0,0,0,.06-.08.11v0a.44.44,0,0,0-.08.11l0,0-.05.07h0l-.08.13,0,.05-.07.1-.06.08,0,0a.35.35,0,0,0-.05.08,1,1,0,0,0-.08.11l-.05.07,0,0a.61.61,0,0,0-.07.1l-.09.12v0l0,0-.1.14v0l0,0-.08.12-.07.11-.11.15h0l0,0-.09.12,0,.05-.11.15a5.88,5.88,0,0,0-1.33,3.74v24.11a6,6,0,0,0-1.86,1.82l-.07.1-.05.07v0l-.06.09,0,.06,0,.06a.22.22,0,0,0-.05.08l0,0-.06.09v0l-.06.09-.05.06,0,.06,0,.06-.05.06,0,.06-.09.14h0l0,0,0,.06-.07.1,0,0,0,.08-.06.09h0l0,.07-.07.11-.07.1,0,0a.86.86,0,0,0-.07.1l0,0,0,0c-4.39-10.5-9-21.42-12.26-29.27a14.57,14.57,0,0,0,3.38-2.53,12.51,12.51,0,0,0,1.64-2l0,0,0-.05.48-.72a.86.86,0,0,0,.07-.1l1.39-2.07,0,0h0l.06-.1h0c3.39-5.12,4.15-13.32-.91-19.16a10.5,10.5,0,0,0-8.17-3.87Zm47.17,56c1.35-.75,2.55-1.49,3.59-2.14,3.29-2.05,4.65-2.9,7.77-2.9,4.34,0,5.25,2.74,5.25,5a15.46,15.46,0,0,1-.6,4.58,6.3,6.3,0,0,1-3.41.81h-.34a5.92,5.92,0,0,0-5.15-3h-1a5.9,5.9,0,0,0-5,2.72h0a.35.35,0,0,0-.05.08l0,0,0,.05,0,0,0,.06-.06.09,0,.05-.06.08h0l0,0,0,.05,0,0L330,395l-.06.09,0,.06,0,.06,0,0-.08.12h0l0,0a.83.83,0,0,0-.08.12.21.21,0,0,0,0,.06l0,.05-.06.09-.09.14,0,0,0,.05,0,0a.21.21,0,0,1,0,.06l0,0v-6.86ZM251.8,422.19l9.67-27.53c.84,2.16,1.68,4.29,2.5,6.41,1.26,3.25,2.48,6.38,3.64,9.28a64.94,64.94,0,0,0-15.81,11.84Zm90,3.13a12.13,12.13,0,0,1,1.32-.08,9.67,9.67,0,0,1,7.2,3.06,17.55,17.55,0,0,1,4.61,11.81,14.93,14.93,0,0,1-1.57,6.46c-2.55,2.9-7.45,6.18-16.54,6.18-9.27,0-16.32-4.65-21.41-14.18A19.46,19.46,0,0,1,317,440a5.93,5.93,0,0,0,4.13,1.67h0a5.82,5.82,0,0,0,2.33-.48,5.88,5.88,0,0,0,2.63-2.2l0-.07h0a.18.18,0,0,0,.05-.07l.05-.06.08-.13,0,0,0,0a1,1,0,0,0,.08-.11l0,0,.08-.11h0l0,0,0-.06.06-.09,0-.07,0,0s.07-.1.1-.16l0-.05,0-.06.06-.09h0a.35.35,0,0,1,.05-.08.21.21,0,0,0,0-.06l.07-.11.09-.12v0a.57.57,0,0,0,.08-.13.1.1,0,0,0,0-.05.86.86,0,0,0,.07-.1l0-.07a.71.71,0,0,0,.1-.14l0,0h0l.06-.09.08-.12.09-.14a.21.21,0,0,0,0-.06l.06-.08.05-.08.07-.1h0v0a.35.35,0,0,0,.05-.08l.06-.08a5.94,5.94,0,0,0,1-3.35v-2a5.93,5.93,0,0,0,4,1.57h1a5.91,5.91,0,0,0,5-2.68l0,0,0-.06,0-.06.05-.07h0a.35.35,0,0,0,.05-.08l.05-.07.07-.09,0-.07.1-.14,0-.07.05-.07a.35.35,0,0,0,0-.08l.06-.08,0-.05.05-.07,0,0h0l0,0,.07-.11,0,0,0-.06.06-.09.09-.14h0l.05-.07.05-.08,0-.06v0l.06-.08.07-.11.1-.14,0,0,0,0,.1-.14a.35.35,0,0,1,0-.08v0l0-.06.07-.09.08-.13,0,0a.18.18,0,0,1,.05-.07.83.83,0,0,1,.08-.12c.14-.21.26-.42.38-.64s.14-.28.2-.42Zm-71.31,20.12a31.36,31.36,0,0,1,8.53-7.69c1.67,4.05,2.89,7.05,3.71,9.1,7.18,18,20.87,30.51,37.74,35-3.17,3.83-10.56,12-23.72,12-17,0-30.77-14.29-30.77-31.84a32.48,32.48,0,0,1,4.51-16.56Z" transform="translate(-160.34 -277.07)"/><path class="cls-1" d="M364.77,407a19.88,19.88,0,0,0,2.1-2.6l.09-.13,0-.06.05-.07,0-.06,0-.07,0-.05,0-.06.05-.07,0-.06.17-.25,0-.05.05-.07.05-.07.1-.16.05-.07,0-.06,0-.07.05-.08.05-.06.06-.11s.05-.06.05-.07l.05-.06,0-.06.05-.07,0-.06,0-.06,0-.06.08-.11,0-.06,0-.06.05-.08.05-.07,0-.06,0-.06.05-.07,0-.06,0-.05.05-.08,0-.05,0-.07,0-.06,0-.06a26.8,26.8,0,0,0,4.27-15.25c0-15.91-13.13-27.92-30.53-27.92-8,0-13.16,3-17.76,5.67-3.35,1.94-6.25,3.62-9.52,3.62-2.7,0-4.24-2.74-5.48-5.32-.1-.21-.19-.4-.28-.57a1.27,1.27,0,0,0-1.13-.7h-1a1.24,1.24,0,0,0-1,.61l0,.06-.05.06,0,.06a.43.43,0,0,0,0,.07l0,.06,0,.06-.05.06,0,.06a.43.43,0,0,0,0,.07.21.21,0,0,0,0,.06l0,.06-.05.06,0,.06,0,.07a.21.21,0,0,0,0,.06l0,.06-.05.07,0,.05a.43.43,0,0,1,0,.07l0,.06a.21.21,0,0,0,0,.06l-.05.06a.25.25,0,0,1,0,.07l0,.06a.21.21,0,0,0,0,.06l0,.07,0,.05-.05.07,0,.06-.05.07,0,.05a.16.16,0,0,0,0,.07.18.18,0,0,0-.05.07.09.09,0,0,0,0,.05.18.18,0,0,0-.05.07l-.05.06,0,.06,0,.06a.43.43,0,0,0,0,.07l0,.06,0,.05,0,.07,0,.07,0,.05a.43.43,0,0,0,0,.07l0,.06-.05.07h0a1.25,1.25,0,0,0-.37.89v25.13a7.88,7.88,0,0,1-.32,2.24,2.45,2.45,0,0,1-1.26.54,1.26,1.26,0,0,0-1.06.6.21.21,0,0,0,0,.06.25.25,0,0,0,0,.07l0,.06,0,.06,0,.06,0,.06a.25.25,0,0,0,0,.07l0,.06,0,.06a.43.43,0,0,0,0,.07l0,.06,0,.06a.21.21,0,0,0,0,.06l-.05.06a.43.43,0,0,1,0,.07.21.21,0,0,0,0,.06l0,.06-.05.06,0,.07,0,.06,0,.06a.21.21,0,0,0,0,.06l0,.06-.05.07,0,.06,0,.06a.21.21,0,0,0,0,.06l-.05.07,0,.06,0,.06a.21.21,0,0,0,0,.06l0,.06-.05.07,0,0-.05.07a.43.43,0,0,0,0,.07l0,.06,0,0-.05.07a.43.43,0,0,0,0,.07l0,0,0,.06,0,.07,0,.06a.21.21,0,0,1,0,.06.43.43,0,0,0,0,.07.21.21,0,0,0,0,.06l0,0a1.28,1.28,0,0,0-.36.89v1.21a1.27,1.27,0,0,0,1.27,1.27c1.08,0,3.72,2.09,3.72,6v1.74a62.48,62.48,0,0,0-7.12-.54c-6.55-15.69-15-35.8-19.31-46.13a10.63,10.63,0,0,0,6.34-3,8.5,8.5,0,0,0,1.06-1.32l.05-.08,0-.05.46-.69,0-.07,1.42-2.11s0,0,0,0l0-.06c2.37-3.57,3-9.54-.59-13.57a5.88,5.88,0,0,0-9.49.41l-.85,1.25,0,.06-1.21,1.8a5.8,5.8,0,0,0-1,3.33c0,.15,0,.31,0,.46-1.93-.59-4.38-1.62-6.93-2.7-5.75-2.42-12.9-5.44-18.83-5.44a11.4,11.4,0,0,0-8.39,3.11,8.62,8.62,0,0,0-1,1.26l-.05.07,0,.06-.54.8-.05.07,0,.07-.07.1-.26.39,0,.06-.18.25,0,.06,0,.05,0,.07-.14.2,0,.06,0,.05-.18.26,0,.05-.06.09-.07.1-.17.25a10.75,10.75,0,0,0,.34,12.62,5.88,5.88,0,0,0,9.84.08l.29-.44,0-.06.13-.2,0-.05.93-1.37,0-.06.12-.18,0-.06.47-.69a5.92,5.92,0,0,0,1-3.12c.21.45.55,1.89-.84,5.74l-10.91,30.26-.09.22c-2.54,2.58-6,3.92-7,3.92a1.25,1.25,0,0,0-1,.6l-.05.07,0,.06,0,.06,0,.06,0,.06-.05.07a.21.21,0,0,1,0,.06l0,.06,0,.06a.16.16,0,0,0,0,.07l0,.06,0,.06a.21.21,0,0,1,0,.06l0,.06a.16.16,0,0,0,0,.07l-.05.06,0,.06,0,.06,0,.07,0,.06-.05.06,0,.06,0,.06,0,.07,0,.06,0,.06,0,.06-.05.06,0,.06,0,.07,0,.07,0,.05-.05.07,0,.06,0,.06,0,.06,0,.06a.43.43,0,0,1,0,.07l0,.06,0,.07,0,.05-.05.07,0,.06,0,.06,0,.06,0,.06-.05.07v0a1.25,1.25,0,0,0-.37.89v.75a1.27,1.27,0,0,0,1.27,1.27,5.38,5.38,0,0,1,3.42,2.11,2.33,2.33,0,0,1,.38,2.27l-11.25,31.23a26.24,26.24,0,0,0-6.42-.91,11.38,11.38,0,0,0-8.38,3.11,8.12,8.12,0,0,0-1.05,1.31l-.06.07,0,.07-.16.24,0,.06-.27.39,0,.05-.08.12,0,.05-.18.28-.08.11-.34.51,0,.06-.2.3,0,.07,0,.06,0,.06-.09.13,0,.06-.07.11-.18.26a10.76,10.76,0,0,0,.34,12.62,5.88,5.88,0,0,0,9.83.09l2.11-3.12a5.93,5.93,0,0,0,1-3.34v-.05a72.14,72.14,0,0,1,7,2.77c4.48,1.92,9.49,4.07,14.23,5-1.79,2-3.51,2.84-4.07,2.84a1.27,1.27,0,0,0-1.06.61l0,.06,0,.06a.21.21,0,0,0,0,.06l-.05.07,0,.06,0,.06,0,.07a.21.21,0,0,0,0,.06l-.05.06a.43.43,0,0,0,0,.07l0,.05,0,.07,0,.06,0,.06,0,.07,0,.05,0,.07a.21.21,0,0,0,0,.06l0,.07,0,.05-.05.07,0,.06-.05.07,0,.05,0,.07,0,.06,0,.06,0,.06-.05.07,0,.06,0,.06,0,.06,0,.06a.16.16,0,0,0,0,.07l-.05.06,0,.06,0,.06a.16.16,0,0,0,0,.07l0,.06,0,.06,0,.06,0,.06a.25.25,0,0,0,0,.07l-.05.06,0,.06a.43.43,0,0,0,0,.07l0,.05,0,0a1.28,1.28,0,0,0-.36.89v1.21a1.27,1.27,0,0,0,1.27,1.27c.53,0,5.29.28,7.36,10,4.73,26,27.39,44.13,55.11,44.13,21.59,0,36.73-10.88,43.14-20.19l0-.05,0-.06.13-.19,0-.06,0-.07.05-.07,0-.06,0-.06,0-.05.05-.06,0-.07.13-.19,0-.06,0-.06.13-.19,0-.06s0-.07.05-.07l.05-.07,0-.06,0-.05,0-.07,0-.06.08-.11,0-.07.09-.12,0-.07,0-.06.1-.14,0-.05,0-.06,0-.06.13-.19,0-.06.05-.07.07-.1,0-.07.06-.09,0-.05c2.89-4.18,4.42-8.41,4.42-12.24a11.1,11.1,0,0,0-1.49-5.84c14.08-1.69,25.27-7.92,31.7-17.7l0-.06s0,0,0,0l0-.07.05-.07,0-.06.05-.07,0-.06,0-.07.07-.1,0-.06,0-.06,0-.07.05-.07,0-.06.05-.08,0-.06,0-.06,0-.06,0-.05,0-.07.05-.06,0-.07.06-.09.07-.1,0-.06,0-.05.05-.07,0-.06,0-.06.07-.11.06-.08,0,0,.05-.08,0-.05,0-.06.07-.11.06-.08,0-.07,0-.06,0-.07.05-.06,0-.06,0-.06,0,0,0-.07,0,0a36.83,36.83,0,0,0,6-20.71A33.51,33.51,0,0,0,364.77,407Zm-58.35,22.65a26.73,26.73,0,0,1,13.84,6.94,1.26,1.26,0,0,0,1.38.26,1.24,1.24,0,0,0,.57-.49l.05-.07,0-.05,0-.07,0-.06,0-.06.05-.07,0-.06,0-.06,0-.06.05-.07,0-.06a.13.13,0,0,0,0-.06l.05-.06,0-.06a.25.25,0,0,0,0-.07l0-.05.05-.07,0-.06,0-.07.05-.06,0-.06a.21.21,0,0,0,0-.06.18.18,0,0,0,.05-.07l0-.06,0-.06.05-.06,0-.06.05-.06a.35.35,0,0,1,.05-.08l0-.05,0-.06.05-.06,0-.06,0-.07a.21.21,0,0,0,0-.06.16.16,0,0,0,0-.07s0,0,0-.06l0-.05a.43.43,0,0,1,0-.07.21.21,0,0,0,0-.06l.05-.07,0-.05a.16.16,0,0,0,0-.07.18.18,0,0,0,.05-.07l0-.05,0-.07,0-.06,0,0a.35.35,0,0,0,0-.08l0-.05a1.31,1.31,0,0,0,.24-.75V386.38a50.24,50.24,0,0,0,5.8-3.24c3.48-2.16,5.78-3.59,10.23-3.59,9.64,0,9.92,8.7,9.92,9.69a18.45,18.45,0,0,1-1.34,7.39,10.09,10.09,0,0,1-7.34,2.67c-2.92,0-4.22-.87-4.22-1.73a1.27,1.27,0,0,0-1.27-1.28h-1a1.24,1.24,0,0,0-1.05.61l0,.06,0,.07,0,.06a.21.21,0,0,1,0,.06l0,.06-.05.07a.21.21,0,0,1,0,.06l0,.06,0,.06a.16.16,0,0,0,0,.07.1.1,0,0,0,0,.05.25.25,0,0,0,0,.07l-.05.06,0,.07,0,.05a.43.43,0,0,0,0,.07l0,.07,0,0-.05.06,0,.07,0,.06-.05.06a.21.21,0,0,1,0,.06l0,.06,0,.07,0,.06,0,.06-.05.07,0,.06,0,.06,0,.06,0,.07a.1.1,0,0,1,0,.05.25.25,0,0,1,0,.07.43.43,0,0,0,0,.07.1.1,0,0,0,0,.05l0,.06,0,.07,0,.06,0,.06,0,.06-.05.07,0,.06,0,.06a.43.43,0,0,0,0,.07l0,.05-.05.07h0a1.28,1.28,0,0,0-.38.9v25.4a1.27,1.27,0,0,0,1.27,1.27h1a1.28,1.28,0,0,0,1.08-.59l0-.06a.43.43,0,0,0,0-.07.1.1,0,0,0,0-.05.21.21,0,0,0,0-.06l.05-.07a.1.1,0,0,1,0-.05.43.43,0,0,1,0-.07l0-.06,0-.07,0-.06,0-.06,0-.06,0-.06.05-.07,0-.06,0-.06,0-.06,0-.07.05-.06,0-.05,0-.08,0-.06,0-.05,0-.07,0-.06,0-.07,0-.06,0-.06,0-.06,0-.07,0-.05,0-.07a.16.16,0,0,0,0-.07.1.1,0,0,0,0-.05l.05-.07,0-.06,0-.06,0-.06.05-.07,0-.06,0-.06,0-.06a.43.43,0,0,0,0-.07l0-.06.05-.06,0-.06a.43.43,0,0,0,0-.07l0-.05a.61.61,0,0,0,0-.06l.11-.19a1.24,1.24,0,0,0,.17-.63,6.88,6.88,0,0,1,.11-1.31,7.19,7.19,0,0,1,2.41-.82,14.68,14.68,0,0,1,13.5,4.19,22.21,22.21,0,0,1,6,15.16,19.8,19.8,0,0,1-2.34,9c-3.12,3.78-9.19,8.23-20.44,8.23-12.77,0-22.23-7.5-28.13-22.3C308.51,434.73,307.76,432.9,306.42,429.68Zm24.82,50,0,.06-.07.1,0,.06v0h0L331,480l-.08.13,0,.05a.31.31,0,0,0-.05.07s0,.07,0,.06l0,.06h0l0,.07h0s-.05.07,0,.07a.31.31,0,0,0-.05.07l0,.05s0,.07,0,.06a.3.3,0,0,1,0,.07l0,.06-.05.06h0s0,.07,0,.06a5.72,5.72,0,0,0-1.13,3.24,5.39,5.39,0,0,0,.08,1.2A3.36,3.36,0,0,1,327,484a1.27,1.27,0,0,0-2.1-.21l-.29.35c-2.89,3.54-11.68,14.33-27.84,14.33-19.54,0-35.44-16.37-35.44-36.5a37.16,37.16,0,0,1,5.31-19.18,35.62,35.62,0,0,1,14.79-11.51c2.63,6.34,4.53,11,5.66,13.81,8.05,20.21,24.63,32.69,44.67,33.8h0l-.06.1,0,.05a1.16,1.16,0,0,1-.11.16v0l0,.06,0,.06-.06.1,0,0,0,.06-.05.06ZM243.47,436.8l-.3.45,0,.05-.06.09-.07.11-.21.32s0,.06,0,.06l0,.06-.67,1a5.92,5.92,0,0,0-1,3.33,3.46,3.46,0,0,0,0,.46c-.39-.11-.8-.25-1.25-.41l21.37-60.84c4.69,11.11,8.86,22.62,12.43,31.13a58.78,58.78,0,0,0-23.79,19.31l0,.06-.11.18,0,.06s0,.06-.05.06l-.21.32,0,.06,0,.07,0,.06,0,.06,0,.06-.2.3a5.88,5.88,0,0,0-4.79,2.64l-.62.91Zm6.77-3.3Zm.33-.49Zm34.9-78.92Zm.18-.27Zm.44-.66ZM278,341.59Zm-38.54,3.51Zm7.57,12ZM374.7,458.21Z" transform="translate(-160.34 -277.07)"/><path class="cls-3" d="M337.42,476.61a4.68,4.68,0,0,0-4.78,4.44,4.58,4.58,0,0,0,1.23,3.32c-.12,3.12-6.51,3.1-8,.25-2.7,3.29-11.79,15.15-29.11,15.15C276.49,499.77,260,482.83,260,462a37.92,37.92,0,0,1,24.34-35.51c-1.82-4.38-3.74-9.46-5.91-14.63-16.55,6.36-30.81,19.17-35,37.35-2.09,7.33-7.22,10.94-9.15,10.94v1.21c1.93,0,6.59,1.56,8.61,11,4.84,26.62,28.16,43.08,53.86,43.08,27.78,0,46.25-18.47,46.25-31.09C343,479.45,340.38,476.61,337.42,476.61Z" transform="translate(-160.34 -277.07)"/><path class="cls-1" d="M296.73,516.57c-27.64,0-50.24-18.09-55-44-2.1-9.82-7-10.11-7.52-10.11a1.11,1.11,0,0,1-1.11-1.11v-1.21a1.11,1.11,0,0,1,1.11-1.11c1.25,0,6.06-3.05,8.08-10.14,3.95-17,17-30.87,35.71-38.08a1.13,1.13,0,0,1,1.43.61c1.17,2.81,2.27,5.57,3.33,8.25.89,2.23,1.75,4.38,2.58,6.39a1.1,1.1,0,0,1,0,.87,1.13,1.13,0,0,1-.63.6A36.81,36.81,0,0,0,261.13,462c0,20.21,16,36.66,35.6,36.66,16.23,0,25.06-10.83,28-14.39l.28-.35a1.13,1.13,0,0,1,1-.4,1.1,1.1,0,0,1,.87.58,4,4,0,0,0,3.45,1.52c1,0,2.1-.3,2.4-.95a5.68,5.68,0,0,1-1.14-3.66,5.79,5.79,0,0,1,5.89-5.51c3.32,0,6.67,3.05,6.67,8.87C344.09,497.5,325.64,516.57,296.73,516.57Zm-60.38-55.92c2.35.86,5.9,3.49,7.61,11.5,4.52,24.86,26.22,42.2,52.77,42.2,27.14,0,45.14-18,45.14-30,0-3.91-1.83-6.65-4.45-6.65a3.59,3.59,0,0,0-3.67,3.38,3.43,3.43,0,0,0,.93,2.51,1.14,1.14,0,0,1,.3.8c-.08,2.06-2,3.43-4.71,3.43a7,7,0,0,1-4.42-1.47c-3.56,4.3-12.79,14.51-29.12,14.51-20.85,0-37.82-17.44-37.82-38.88a39.09,39.09,0,0,1,24-36.13c-.7-1.71-1.42-3.51-2.16-5.37-.93-2.35-1.89-4.76-2.91-7.21-17.5,7-29.62,20.18-33.34,36.17C242.76,455.54,239.07,459.27,236.35,460.65Z" transform="translate(-160.34 -277.07)"/><path class="cls-3" d="M274.42,356.5c4.27.73,8.17.33,10.91-2.41,2.47-2.47,4.12-8.85.35-13.12a4.62,4.62,0,1,0-6.89,6.13c0,9-27.6-14.16-38-3.76a9.52,9.52,0,0,0-.51,12.18,4.62,4.62,0,1,0,7.51-5.35c.05-2.16,1.74-2.39,4.39-1.66,1.74.58,2.1,3,.39,7.77l-10.91,30.26c-1.87,5.19-8.46,8.15-10.4,8.15v.75c1.94,0,6.23,2.67,5,6.08l-12.89,35.76c-6-1.84-11.91-2.39-15.6,1.31a9.5,9.5,0,0,0-.51,12.17,4.62,4.62,0,0,0,8.53-2.45,4.58,4.58,0,0,0-1-2.89c.18-7.06,17.65,6.46,29.87,6.64a10.12,10.12,0,0,0,7.67-2.73c2.47-2.47,4.12-8.85.35-13.11a4.62,4.62,0,1,0-6.89,6.13c0,3-3.1,2.44-7.61.71l24.5-69.53c9.75,23.1,23.47,57.31,27.71,67.94,8.5,21.34,26.53,33.09,46.43,33.09,27.61,0,44.44-15.69,44.44-37.54a32.38,32.38,0,0,0-20.65-30.5c4.42-1.34,11.39-7.7,11.39-20.46,0-14.5-11.8-26.65-29.26-26.65-13.56,0-19,9.29-27.28,9.29-4.07,0-5.95-4.69-6.89-6.59h-1v25.12c0,4.43-3.06,7.23-5,7.23v1.2c1.93,0,5,2.8,5,7.23v6.8a55.87,55.87,0,0,0-11.37-1.15l6.65,15.93c8.89.72,15.32,3.15,20.41,8.06V383.17a37.55,37.55,0,0,0,8.54-4.28c3.53-2.2,6.09-3.79,10.9-3.79,8.83,0,11.19,6.89,11.19,11,0,9.06-4.21,14.51-12.09,14.51-4.1,0-5.49-1.57-5.49-3h-1V423h1c0-2.94,1.3-5.81,5.72-6.55C356.28,414,363.13,427.77,363,437c-.16,10.44-8.2,21.67-26.19,21.67-13.34,0-23.2-7.77-29.31-23.09C306.45,433,278.79,366.83,274.42,356.5Z" transform="translate(-160.34 -277.07)"/><path class="cls-1" d="M320.54,395.07a9.4,9.4,0,0,1-4.34-2.93c0-1.76-.07-3.52-.13-5.29-.12-3.62-.3-7.24-.63-10.86-.34,3.62-.52,7.24-.64,10.86-.06,1.78-.1,3.56-.13,5.35a9.65,9.65,0,0,1-4.3,2.87,9.29,9.29,0,0,1,4.25,2.82c0,3.56.05,7.12.18,10.68s.3,7.24.64,10.86c.34-3.62.51-7.24.63-10.86s.17-7.09.18-10.64A9.31,9.31,0,0,1,320.54,395.07Z" transform="translate(-160.34 -277.07)"/><path class="cls-1" d="M256.31,482.41a47.45,47.45,0,0,1-4.46-18.92,9.33,9.33,0,0,1,4.34-2.93,9.42,9.42,0,0,1-4.23-2.79,35.66,35.66,0,0,1,1.35-7.66,43.52,43.52,0,0,1,4-10.23,47.83,47.83,0,0,1,14.95-16.22,43.42,43.42,0,0,0-16.06,15.59,42.58,42.58,0,0,0-4.43,10.47l-.18.68c0,.14-.13.44-.19.65-.13.47-.24.93-.34,1.4-.21.94-.37,1.88-.49,2.83-.11.78-.18,1.56-.24,2.35a9.59,9.59,0,0,1-4.35,2.93,9.26,9.26,0,0,1,4.21,2.77,48.12,48.12,0,0,0,1.09,8.95A44.33,44.33,0,0,0,255.17,483a42.89,42.89,0,0,0,6.47,9.3,42.41,42.41,0,0,0,8.64,7.19A46.28,46.28,0,0,1,256.31,482.41Z" transform="translate(-160.34 -277.07)"/><path class="cls-1" d="M257.57,366.54q-3.16,7.27-6,14.65c-1.43,3.66-2.81,7.34-4.18,11a16.06,16.06,0,0,1-5.42,2.86,6,6,0,0,1,3.35,2.79c-1.56,4.35-3.11,8.7-4.58,13.08q-2.57,7.49-4.82,15.09,3.15-7.27,6-14.65c1.76-4.49,3.45-9,5.11-13.53a13.81,13.81,0,0,1,5.1-2.78,5.4,5.4,0,0,1-3.1-2.77q1.9-5.32,3.73-10.67Q255.3,374.13,257.57,366.54Z" transform="translate(-160.34 -277.07)"/><path class="cls-1" d="M336.8,475.67c-21.29,0-39-12.63-47.47-33.79-.64-1.62-15.51-38.9-26.57-65.27L239.57,442.4a14.13,14.13,0,0,0,4,1c.68,0,.95-.14,1-.63a5.73,5.73,0,1,1,8.89-7.22c4.1,4.63,2.53,11.63-.43,14.59a11.14,11.14,0,0,1-8.21,3.06h-.27c-5.81-.09-12.75-3.07-18.32-5.46-3.85-1.66-7.49-3.22-9.4-3.22-.66,0-.91.13-1,.6a5.73,5.73,0,0,1-4.74,9,5.7,5.7,0,0,1-4.81-2.63A10.65,10.65,0,0,1,207,437.8a11.26,11.26,0,0,1,8.28-3.06,27.49,27.49,0,0,1,7.42,1.18l12.53-34.78a2.49,2.49,0,0,0-.4-2.42,5.48,5.48,0,0,0-3.55-2.17,1.11,1.11,0,0,1-1.11-1.11v-.75a1.12,1.12,0,0,1,1.11-1.12c1.43,0,7.66-2.69,9.36-7.41l10.91-30.26c1.41-3.92,1.05-5.4.83-5.86a.86.86,0,0,0-.53-.48,8,8,0,0,0-1.91-.32c-.66,0-.91.13-1,.61a5.72,5.72,0,1,1-9.55,6.31,10.62,10.62,0,0,1,.62-13.6,11.23,11.23,0,0,1,8.28-3.07c5.9,0,13,3,18.77,5.43,3.92,1.65,7.62,3.21,9.57,3.21.69,0,1-.13,1-.63a5.61,5.61,0,0,1-1.33-3.67,5.72,5.72,0,0,1,10.22-3.55c4.1,4.64,2.52,11.64-.43,14.59a11.14,11.14,0,0,1-8.21,3.06c-.55,0-1.12,0-1.71-.08,3.46,8.21,13,31,20.76,49.58a58.23,58.23,0,0,1,9.52.9v-5.44c0-3.73-2.55-6.11-3.88-6.11a1.11,1.11,0,0,1-1.11-1.12v-1.2a1.1,1.1,0,0,1,1.11-1.11c1.33,0,3.88-2.39,3.88-6.12V362.11a1.11,1.11,0,0,1,1.11-1.11h1a1.12,1.12,0,0,1,1,.61c.08.17.18.36.27.57,1,2,2.61,5.41,5.63,5.41,3.32,0,6.23-1.69,9.6-3.64,4.58-2.65,9.76-5.65,17.68-5.65,17.31,0,30.37,11.94,30.37,27.76,0,11.69-5.47,17.91-9.74,20.42a33.63,33.63,0,0,1,19,30.54C382.35,460.14,364.05,475.67,336.8,475.67ZM262.66,372.42a1.13,1.13,0,0,1,1,.68c11.16,26.45,27,66.28,27.71,68,8.08,20.28,25.05,32.39,45.4,32.39,26.32,0,43.33-14.3,43.33-36.43a31.34,31.34,0,0,0-19.93-29.46,1.12,1.12,0,0,1,.07-2.11c4.26-1.29,10.6-7.51,10.6-19.39,0-14.56-12.1-25.54-28.15-25.54-7.32,0-12.23,2.85-16.56,5.35-3.5,2-6.81,3.94-10.72,3.94-3.42,0-5.49-2.7-6.74-4.92v22.34a8.75,8.75,0,0,1-4.25,7.83,8.75,8.75,0,0,1,4.25,7.83v6.8a1.1,1.1,0,0,1-.41.86,1.11,1.11,0,0,1-.93.23,52.74,52.74,0,0,0-9.46-1.11c2,4.81,3.88,9.29,5.47,13.12l.26.63c7.94.72,13.79,2.81,18.54,6.65v-46.9a1.1,1.1,0,0,1,.77-1.05,36.84,36.84,0,0,0,8.29-4.17c3.56-2.22,6.36-4,11.49-4,9.71,0,12.3,7.59,12.3,12.07,0,9.93-4.81,15.62-13.2,15.62-2.6,0-4.31-.61-5.34-1.48v18.2a7.81,7.81,0,0,1,5.39-3.09,17.15,17.15,0,0,1,15.59,4.87A24.62,24.62,0,0,1,364.1,437c-.16,11-8.77,22.76-27.3,22.76-13.84,0-24.05-8-30.34-23.79-.25-.62-2-4.89-5.14-12.36L295.19,409c-8.46-20.25-19.19-45.9-21.79-52a1.11,1.11,0,0,1,.15-1.12,1.13,1.13,0,0,1,1.06-.41c4.52.78,7.74.09,9.94-2.1,1.95-1.95,3.78-7.66.29-11.59a3.5,3.5,0,0,0-6.29,2.12,3.45,3.45,0,0,0,1,2.48,1.12,1.12,0,0,1,.32.79,3,3,0,0,1-3.28,3.25c-2.4,0-6.12-1.57-10.44-3.39-5.54-2.33-12.45-5.25-17.9-5.25a9,9,0,0,0-6.71,2.42,8.44,8.44,0,0,0-.42,10.69l.07.11a3.51,3.51,0,1,0,5.7-4.06,1.13,1.13,0,0,1-.25-.73,3,3,0,0,1,3.25-3.12,10.3,10.3,0,0,1,2.56.41,3.16,3.16,0,0,1,1.88,1.64c.77,1.59.52,4.07-.74,7.59l-10.91,30.25c-1.48,4.09-5.66,7-8.75,8.23a7.86,7.86,0,0,1,2.67,2.31,4.66,4.66,0,0,1,.67,4.44l-12.89,35.77a1.12,1.12,0,0,1-1.37.68c-7.09-2.16-11.63-1.82-14.49,1a8.46,8.46,0,0,0-.42,10.7l.08.1a3.47,3.47,0,0,0,3,1.65,3.51,3.51,0,0,0,3.51-3.51,3.46,3.46,0,0,0-.78-2.2,1.1,1.1,0,0,1-.24-.72,2.94,2.94,0,0,1,3.24-3.12c2.37,0,5.86,1.5,10.28,3.4,5.39,2.31,12.11,5.2,17.48,5.28h.23a8.89,8.89,0,0,0,6.64-2.4c1.95-2,3.78-7.66.29-11.59a3.5,3.5,0,0,0-6.29,2.12,3.45,3.45,0,0,0,1,2.48,1.11,1.11,0,0,1,.33.79,3,3,0,0,1-3.28,3.25,17.79,17.79,0,0,1-5.85-1.51,1.11,1.11,0,0,1-.65-1.4l24.51-69.53a1.1,1.1,0,0,1,1-.74Zm41.95,53.33c1.84,4.42,3.66,8.79,3.91,9.43,5.93,14.86,15.44,22.4,28.28,22.4,17.11,0,24.93-10.33,25.08-20.57a22.38,22.38,0,0,0-6-15.27,14.82,14.82,0,0,0-13.64-4.24c-3.23.54-4.8,2.33-4.8,5.46a1.11,1.11,0,0,1-1.11,1.11h-1a1.11,1.11,0,0,1-1.11-1.11V397.57a1.12,1.12,0,0,1,1.11-1.12h1a1.12,1.12,0,0,1,1.11,1.12c0,.87,1.15,1.89,4.38,1.89,7.08,0,11-4.76,11-13.4,0-1-.28-9.85-10.08-9.85-4.49,0-6.81,1.44-10.31,3.62a40.45,40.45,0,0,1-8,4.14v48.56a1.13,1.13,0,0,1-.68,1,1.11,1.11,0,0,1-1.2-.23C318,429,312.46,426.64,304.61,425.75Z" transform="translate(-160.34 -277.07)"/></svg>