<svg aria-hidden="true" style="position: absolute; width: 0; height: 0; overflow: hidden;" version="1.1" xmlns="http://www.w3.org/2000/svg" xmlns:xlink="http://www.w3.org/1999/xlink">
<defs>
<symbol id="icon-twitter" viewBox="0 0 24 24">
<title>twitter</title>
<path d="M20.833 5.262c-0.186 0.242-0.391 0.475-0.616 0.696-0.233 0.232-0.347 0.567-0.278 0.908 0.037 0.182 0.060 0.404 0.061 0.634 0 1.405-0.174 2.697-0.49 3.871-0.292 1.085-0.707 2.072-1.222 2.958-1.019 1.754-2.437 3.123-4.098 4.069-0.853 0.486-1.772 0.862-2.735 1.12-1.004 0.269-2.056 0.41-3.133 0.416-1.101 0.006-2.227-0.13-3.353-0.416 1.246-0.361 2.46-0.922 3.593-1.69 0.147-0.099 0.273-0.243 0.352-0.421 0.224-0.505-0.003-1.096-0.508-1.32-1.438-0.639-2.487-1.4-3.251-2.205-0.72-0.758-1.203-1.57-1.518-2.389-0.185-0.481-0.313-0.967-0.396-1.449-0.105-0.606-0.138-1.206-0.123-1.778 0.021-0.811 0.138-1.56 0.278-2.182 0.393 0.343 0.802 0.706 1.234 1.038 1.042 0.801 2.22 1.429 3.491 1.843 1.229 0.4 2.544 0.6 3.905 0.565 0.541-0.015 0.974-0.457 0.974-1v-1.011c-0.002-0.179 0.009-0.357 0.034-0.534 0.058-0.411 0.188-0.81 0.387-1.178 0.192-0.354 0.45-0.681 0.774-0.963 0.357-0.311 0.757-0.534 1.177-0.675 0.436-0.146 0.895-0.203 1.349-0.171s0.9 0.151 1.312 0.357c0.396 0.197 0.761 0.474 1.072 0.831 0.252 0.286 0.649 0.416 1.033 0.304 0.231-0.067 0.463-0.143 0.695-0.228zM22.424 2.183c-0.74 0.522-1.523 0.926-2.287 1.205-0.371-0.333-0.779-0.608-1.211-0.823-0.65-0.324-1.353-0.512-2.065-0.562s-1.434 0.039-2.123 0.27c-0.664 0.222-1.295 0.576-1.854 1.062-0.507 0.441-0.915 0.957-1.22 1.518-0.316 0.582-0.52 1.211-0.61 1.854-0.037 0.265-0.055 0.533-0.054 0.8-0.783-0.058-1.539-0.209-2.26-0.444-1.050-0.342-2.026-0.861-2.891-1.526-0.775-0.596-1.461-1.309-2.033-2.116-0.32-0.45-0.944-0.556-1.395-0.237-0.153 0.109-0.267 0.254-0.335 0.41-0.017 0.039-0.367 0.832-0.642 2.050-0.162 0.722-0.301 1.603-0.326 2.571-0.017 0.684 0.022 1.416 0.152 2.169 0.103 0.6 0.265 1.214 0.501 1.827 0.404 1.051 1.024 2.090 1.934 3.048 0.609 0.641 1.34 1.238 2.212 1.775-0.511 0.237-1.034 0.429-1.562 0.579-1.094 0.31-2.214 0.436-3.311 0.388-0.552-0.024-1.019 0.403-1.043 0.955-0.017 0.389 0.19 0.736 0.513 0.918 2.529 1.405 5.221 2.073 7.819 2.059 1.245-0.007 2.468-0.17 3.64-0.484 1.125-0.301 2.203-0.741 3.208-1.314 1.96-1.117 3.636-2.736 4.837-4.802 0.605-1.041 1.087-2.191 1.424-3.442 0.363-1.353 0.558-2.82 0.558-4.391-0.001-0.167-0.008-0.33-0.023-0.489 1.006-1.115 1.676-2.429 1.996-3.781 0.127-0.537-0.206-1.076-0.743-1.203-0.29-0.069-0.58-0.003-0.807 0.156z"></path>
</symbol>
<symbol id="icon-instagram" viewBox="0 0 24 24">
<title>instagram</title>
<path d="M7 1c-0.811 0-1.587 0.161-2.295 0.455-0.735 0.304-1.395 0.75-1.948 1.302s-0.998 1.213-1.302 1.948c-0.294 0.708-0.455 1.484-0.455 2.295v10c0 0.811 0.161 1.587 0.455 2.295 0.304 0.735 0.75 1.395 1.303 1.948s1.213 0.998 1.948 1.303c0.707 0.293 1.483 0.454 2.294 0.454h10c0.811 0 1.587-0.161 2.295-0.455 0.735-0.304 1.395-0.75 1.948-1.303s0.998-1.213 1.303-1.948c0.293-0.707 0.454-1.483 0.454-2.294v-10c0-0.811-0.161-1.587-0.455-2.295-0.304-0.735-0.75-1.395-1.303-1.948s-1.213-0.998-1.948-1.303c-0.707-0.293-1.483-0.454-2.294-0.454zM7 3h10c0.544 0 1.060 0.108 1.529 0.303 0.489 0.202 0.929 0.5 1.299 0.869s0.667 0.81 0.869 1.299c0.195 0.469 0.303 0.985 0.303 1.529v10c0 0.544-0.108 1.060-0.303 1.529-0.202 0.489-0.5 0.929-0.869 1.299s-0.81 0.667-1.299 0.869c-0.469 0.195-0.985 0.303-1.529 0.303h-10c-0.544 0-1.060-0.108-1.529-0.303-0.489-0.202-0.929-0.5-1.299-0.869s-0.667-0.81-0.869-1.299c-0.195-0.469-0.303-0.985-0.303-1.529v-10c0-0.544 0.108-1.060 0.303-1.529 0.202-0.489 0.5-0.929 0.869-1.299s0.81-0.667 1.299-0.869c0.469-0.195 0.985-0.303 1.529-0.303zM16.989 11.223c-0.15-0.972-0.571-1.857-1.194-2.567-0.383-0.437-0.842-0.808-1.362-1.092-0.503-0.275-1.061-0.465-1.647-0.552-0.464-0.074-0.97-0.077-1.477-0.002-0.668 0.099-1.288 0.327-1.836 0.655-0.569 0.341-1.059 0.789-1.446 1.312s-0.674 1.123-0.835 1.766c-0.155 0.62-0.193 1.279-0.094 1.947s0.327 1.288 0.655 1.836c0.341 0.569 0.789 1.059 1.312 1.446s1.122 0.674 1.765 0.836c0.62 0.155 1.279 0.193 1.947 0.094s1.288-0.327 1.836-0.655c0.569-0.341 1.059-0.789 1.446-1.312s0.674-1.122 0.836-1.765c0.155-0.62 0.193-1.279 0.094-1.947zM15.011 11.517c0.060 0.404 0.037 0.798-0.056 1.168-0.096 0.385-0.268 0.744-0.502 1.059s-0.528 0.584-0.868 0.788c-0.327 0.196-0.698 0.333-1.101 0.393s-0.798 0.037-1.168-0.056c-0.385-0.096-0.744-0.268-1.059-0.502s-0.584-0.528-0.788-0.868c-0.196-0.327-0.333-0.698-0.393-1.101s-0.037-0.798 0.056-1.168c0.096-0.385 0.268-0.744 0.502-1.059s0.528-0.584 0.868-0.788c0.327-0.196 0.698-0.333 1.101-0.393 0.313-0.046 0.615-0.042 0.87-0.002 0.37 0.055 0.704 0.17 1.003 0.333 0.31 0.169 0.585 0.391 0.815 0.654 0.375 0.428 0.63 0.963 0.72 1.543zM18.5 6.5c0-0.552-0.448-1-1-1s-1 0.448-1 1 0.448 1 1 1 1-0.448 1-1z"></path>
</symbol>
<symbol id="icon-facebook" viewBox="0 0 24 24">
<title>facebook</title>
<path d="M17 3v2h-2c-0.269 0-0.528 0.054-0.765 0.152-0.246 0.102-0.465 0.25-0.649 0.434s-0.332 0.404-0.434 0.649c-0.098 0.237-0.152 0.496-0.152 0.765v3c0 0.552 0.448 1 1 1h2.719l-0.5 2h-2.219c-0.552 0-1 0.448-1 1v7h-2v-7c0-0.552-0.448-1-1-1h-2v-2h2c0.552 0 1-0.448 1-1v-3c0-0.544 0.108-1.060 0.303-1.529 0.202-0.489 0.5-0.929 0.869-1.299s0.81-0.667 1.299-0.869c0.469-0.195 0.985-0.303 1.529-0.303zM18 1h-3c-0.811 0-1.587 0.161-2.295 0.455-0.735 0.304-1.395 0.75-1.948 1.303s-0.998 1.212-1.302 1.947c-0.294 0.708-0.455 1.484-0.455 2.295v2h-2c-0.552 0-1 0.448-1 1v4c0 0.552 0.448 1 1 1h2v7c0 0.552 0.448 1 1 1h4c0.552 0 1-0.448 1-1v-7h2c0.466 0 0.858-0.319 0.97-0.757l1-4c0.134-0.536-0.192-1.079-0.728-1.213-0.083-0.021-0.167-0.031-0.242-0.030h-3v-2h3c0.552 0 1-0.448 1-1v-4c0-0.552-0.448-1-1-1z"></path>
</symbol>
</defs>
</svg>
